<mxfile host="app.diagrams.net" modified="2024-01-04T09:02:03.029Z" agent="Mozilla/5.0 (Windows NT 10.0; Win64; x64) AppleWebKit/537.36 (KHTML, like Gecko) Chrome/120.0.0.0 Safari/537.36" etag="xyxQHC_5NphH9cf_-6U4" version="22.1.16" type="github">
  <diagram name="페이지-1" id="p60vnHliZ_0OyTxgEHFv">
    <mxGraphModel dx="1434" dy="780" grid="1" gridSize="10" guides="1" tooltips="1" connect="1" arrows="1" fold="1" page="1" pageScale="1" pageWidth="1390" pageHeight="980" math="0" shadow="0">
      <root>
        <mxCell id="0" />
        <mxCell id="1" parent="0" />
        <mxCell id="Y6X3k-jRTfSvu9yV3Jp_-1" value="학생" style="whiteSpace=wrap;html=1;align=center;fillColor=#e1d5e7;strokeColor=#9673a6;" vertex="1" parent="1">
          <mxGeometry x="520" y="448" width="100" height="40" as="geometry" />
        </mxCell>
        <mxCell id="Y6X3k-jRTfSvu9yV3Jp_-2" value="과목" style="whiteSpace=wrap;html=1;align=center;fillColor=#e1d5e7;strokeColor=#9673a6;" vertex="1" parent="1">
          <mxGeometry x="210" y="448" width="100" height="40" as="geometry" />
        </mxCell>
        <mxCell id="Y6X3k-jRTfSvu9yV3Jp_-3" value="교수" style="whiteSpace=wrap;html=1;align=center;fillColor=#e1d5e7;strokeColor=#9673a6;" vertex="1" parent="1">
          <mxGeometry x="210" y="198" width="100" height="40" as="geometry" />
        </mxCell>
        <mxCell id="Y6X3k-jRTfSvu9yV3Jp_-4" value="학과" style="whiteSpace=wrap;html=1;align=center;fillColor=#e1d5e7;strokeColor=#9673a6;" vertex="1" parent="1">
          <mxGeometry x="520" y="198" width="100" height="40" as="geometry" />
        </mxCell>
        <mxCell id="Y6X3k-jRTfSvu9yV3Jp_-5" value="수강" style="shape=rhombus;perimeter=rhombusPerimeter;whiteSpace=wrap;html=1;align=center;fillColor=#ffe6cc;strokeColor=#d79b00;" vertex="1" parent="1">
          <mxGeometry x="350" y="438" width="120" height="60" as="geometry" />
        </mxCell>
        <mxCell id="Y6X3k-jRTfSvu9yV3Jp_-6" value="소속" style="shape=rhombus;perimeter=rhombusPerimeter;whiteSpace=wrap;html=1;align=center;fillColor=#ffe6cc;strokeColor=#d79b00;" vertex="1" parent="1">
          <mxGeometry x="510" y="318" width="120" height="60" as="geometry" />
        </mxCell>
        <mxCell id="Y6X3k-jRTfSvu9yV3Jp_-7" value="강의" style="shape=rhombus;perimeter=rhombusPerimeter;whiteSpace=wrap;html=1;align=center;fillColor=#ffe6cc;strokeColor=#d79b00;" vertex="1" parent="1">
          <mxGeometry x="200" y="318" width="120" height="60" as="geometry" />
        </mxCell>
        <mxCell id="Y6X3k-jRTfSvu9yV3Jp_-8" value="소속" style="shape=rhombus;perimeter=rhombusPerimeter;whiteSpace=wrap;html=1;align=center;fillColor=#ffe6cc;strokeColor=#d79b00;" vertex="1" parent="1">
          <mxGeometry x="350" y="188" width="120" height="60" as="geometry" />
        </mxCell>
        <mxCell id="Y6X3k-jRTfSvu9yV3Jp_-9" value="시작일" style="ellipse;whiteSpace=wrap;html=1;align=center;" vertex="1" parent="1">
          <mxGeometry x="150" y="578" width="100" height="40" as="geometry" />
        </mxCell>
        <mxCell id="Y6X3k-jRTfSvu9yV3Jp_-10" value="종료일" style="ellipse;whiteSpace=wrap;html=1;align=center;" vertex="1" parent="1">
          <mxGeometry x="80" y="518" width="100" height="40" as="geometry" />
        </mxCell>
        <mxCell id="Y6X3k-jRTfSvu9yV3Jp_-11" value="학과명" style="ellipse;whiteSpace=wrap;html=1;align=center;" vertex="1" parent="1">
          <mxGeometry x="650" y="158" width="100" height="40" as="geometry" />
        </mxCell>
        <mxCell id="Y6X3k-jRTfSvu9yV3Jp_-12" value="이름" style="ellipse;whiteSpace=wrap;html=1;align=center;" vertex="1" parent="1">
          <mxGeometry x="630" y="538" width="100" height="40" as="geometry" />
        </mxCell>
        <mxCell id="Y6X3k-jRTfSvu9yV3Jp_-13" value="키" style="ellipse;whiteSpace=wrap;html=1;align=center;" vertex="1" parent="1">
          <mxGeometry x="530" y="568" width="100" height="40" as="geometry" />
        </mxCell>
        <mxCell id="Y6X3k-jRTfSvu9yV3Jp_-14" value="과목명" style="ellipse;whiteSpace=wrap;html=1;align=center;" vertex="1" parent="1">
          <mxGeometry x="70" y="448" width="100" height="40" as="geometry" />
        </mxCell>
        <mxCell id="Y6X3k-jRTfSvu9yV3Jp_-15" value="교수이름" style="ellipse;whiteSpace=wrap;html=1;align=center;" vertex="1" parent="1">
          <mxGeometry x="80" y="228" width="100" height="40" as="geometry" />
        </mxCell>
        <mxCell id="Y6X3k-jRTfSvu9yV3Jp_-17" value="&lt;font color=&quot;#ff9999&quot;&gt;과목코드&lt;/font&gt;" style="ellipse;whiteSpace=wrap;html=1;align=center;fontStyle=4;" vertex="1" parent="1">
          <mxGeometry x="70" y="388" width="100" height="40" as="geometry" />
        </mxCell>
        <mxCell id="Y6X3k-jRTfSvu9yV3Jp_-18" value="&lt;font color=&quot;#ff6666&quot;&gt;교수코드&lt;/font&gt;" style="ellipse;whiteSpace=wrap;html=1;align=center;fontStyle=4;" vertex="1" parent="1">
          <mxGeometry x="90" y="128" width="100" height="40" as="geometry" />
        </mxCell>
        <mxCell id="Y6X3k-jRTfSvu9yV3Jp_-19" value="&lt;font color=&quot;#ff9999&quot;&gt;학번&lt;/font&gt;" style="ellipse;whiteSpace=wrap;html=1;align=center;fontStyle=4;" vertex="1" parent="1">
          <mxGeometry x="650" y="448" width="100" height="40" as="geometry" />
        </mxCell>
        <mxCell id="Y6X3k-jRTfSvu9yV3Jp_-20" value="&lt;font color=&quot;#ff6666&quot;&gt;학과코드&lt;/font&gt;" style="ellipse;whiteSpace=wrap;html=1;align=center;fontStyle=4;" vertex="1" parent="1">
          <mxGeometry x="550" y="108" width="100" height="40" as="geometry" />
        </mxCell>
        <mxCell id="Y6X3k-jRTfSvu9yV3Jp_-21" value="" style="endArrow=none;html=1;rounded=0;entryX=0.5;entryY=1;entryDx=0;entryDy=0;exitX=0.5;exitY=0;exitDx=0;exitDy=0;" edge="1" parent="1" source="Y6X3k-jRTfSvu9yV3Jp_-7" target="Y6X3k-jRTfSvu9yV3Jp_-3">
          <mxGeometry width="50" height="50" relative="1" as="geometry">
            <mxPoint x="380" y="428" as="sourcePoint" />
            <mxPoint x="430" y="378" as="targetPoint" />
          </mxGeometry>
        </mxCell>
        <mxCell id="Y6X3k-jRTfSvu9yV3Jp_-22" value="" style="endArrow=none;html=1;rounded=0;entryX=0;entryY=0.5;entryDx=0;entryDy=0;exitX=1;exitY=0.5;exitDx=0;exitDy=0;" edge="1" parent="1" source="Y6X3k-jRTfSvu9yV3Jp_-3" target="Y6X3k-jRTfSvu9yV3Jp_-8">
          <mxGeometry width="50" height="50" relative="1" as="geometry">
            <mxPoint x="270" y="328" as="sourcePoint" />
            <mxPoint x="270" y="248" as="targetPoint" />
          </mxGeometry>
        </mxCell>
        <mxCell id="Y6X3k-jRTfSvu9yV3Jp_-23" value="" style="endArrow=none;html=1;rounded=0;entryX=0;entryY=0.5;entryDx=0;entryDy=0;" edge="1" parent="1" source="Y6X3k-jRTfSvu9yV3Jp_-8" target="Y6X3k-jRTfSvu9yV3Jp_-4">
          <mxGeometry width="50" height="50" relative="1" as="geometry">
            <mxPoint x="280" y="338" as="sourcePoint" />
            <mxPoint x="280" y="258" as="targetPoint" />
          </mxGeometry>
        </mxCell>
        <mxCell id="Y6X3k-jRTfSvu9yV3Jp_-24" value="" style="endArrow=none;html=1;rounded=0;entryX=0.5;entryY=0;entryDx=0;entryDy=0;exitX=0.5;exitY=1;exitDx=0;exitDy=0;" edge="1" parent="1" source="Y6X3k-jRTfSvu9yV3Jp_-4" target="Y6X3k-jRTfSvu9yV3Jp_-6">
          <mxGeometry width="50" height="50" relative="1" as="geometry">
            <mxPoint x="325.56" y="341.89" as="sourcePoint" />
            <mxPoint x="520.0044444444443" y="334.11222222222216" as="targetPoint" />
          </mxGeometry>
        </mxCell>
        <mxCell id="Y6X3k-jRTfSvu9yV3Jp_-25" value="" style="endArrow=none;html=1;rounded=0;entryX=0.5;entryY=1;entryDx=0;entryDy=0;exitX=0.5;exitY=0;exitDx=0;exitDy=0;" edge="1" parent="1" source="Y6X3k-jRTfSvu9yV3Jp_-2" target="Y6X3k-jRTfSvu9yV3Jp_-7">
          <mxGeometry width="50" height="50" relative="1" as="geometry">
            <mxPoint x="300" y="358" as="sourcePoint" />
            <mxPoint x="300" y="278" as="targetPoint" />
          </mxGeometry>
        </mxCell>
        <mxCell id="Y6X3k-jRTfSvu9yV3Jp_-26" value="" style="endArrow=none;html=1;rounded=0;entryX=0;entryY=0.5;entryDx=0;entryDy=0;exitX=1;exitY=0.5;exitDx=0;exitDy=0;" edge="1" parent="1" source="Y6X3k-jRTfSvu9yV3Jp_-2" target="Y6X3k-jRTfSvu9yV3Jp_-5">
          <mxGeometry width="50" height="50" relative="1" as="geometry">
            <mxPoint x="310" y="368" as="sourcePoint" />
            <mxPoint x="310" y="288" as="targetPoint" />
          </mxGeometry>
        </mxCell>
        <mxCell id="Y6X3k-jRTfSvu9yV3Jp_-27" value="" style="endArrow=none;html=1;rounded=0;entryX=0;entryY=0.5;entryDx=0;entryDy=0;exitX=1;exitY=0.5;exitDx=0;exitDy=0;" edge="1" parent="1" source="Y6X3k-jRTfSvu9yV3Jp_-5" target="Y6X3k-jRTfSvu9yV3Jp_-1">
          <mxGeometry width="50" height="50" relative="1" as="geometry">
            <mxPoint x="320" y="378" as="sourcePoint" />
            <mxPoint x="320" y="298" as="targetPoint" />
          </mxGeometry>
        </mxCell>
        <mxCell id="Y6X3k-jRTfSvu9yV3Jp_-28" value="" style="endArrow=none;html=1;rounded=0;entryX=0.5;entryY=1;entryDx=0;entryDy=0;exitX=0.5;exitY=0;exitDx=0;exitDy=0;" edge="1" parent="1" source="Y6X3k-jRTfSvu9yV3Jp_-1" target="Y6X3k-jRTfSvu9yV3Jp_-6">
          <mxGeometry width="50" height="50" relative="1" as="geometry">
            <mxPoint x="330" y="388" as="sourcePoint" />
            <mxPoint x="330" y="308" as="targetPoint" />
          </mxGeometry>
        </mxCell>
        <mxCell id="Y6X3k-jRTfSvu9yV3Jp_-29" value="" style="endArrow=none;html=1;rounded=0;entryX=1;entryY=1;entryDx=0;entryDy=0;exitX=0;exitY=0.5;exitDx=0;exitDy=0;" edge="1" parent="1" source="Y6X3k-jRTfSvu9yV3Jp_-3" target="Y6X3k-jRTfSvu9yV3Jp_-18">
          <mxGeometry width="50" height="50" relative="1" as="geometry">
            <mxPoint x="340" y="398" as="sourcePoint" />
            <mxPoint x="340" y="318" as="targetPoint" />
          </mxGeometry>
        </mxCell>
        <mxCell id="Y6X3k-jRTfSvu9yV3Jp_-30" value="" style="endArrow=none;html=1;rounded=0;entryX=0;entryY=0.5;entryDx=0;entryDy=0;exitX=1;exitY=0.5;exitDx=0;exitDy=0;" edge="1" parent="1" source="Y6X3k-jRTfSvu9yV3Jp_-15" target="Y6X3k-jRTfSvu9yV3Jp_-3">
          <mxGeometry width="50" height="50" relative="1" as="geometry">
            <mxPoint x="350" y="408" as="sourcePoint" />
            <mxPoint x="350" y="328" as="targetPoint" />
          </mxGeometry>
        </mxCell>
        <mxCell id="Y6X3k-jRTfSvu9yV3Jp_-31" value="" style="endArrow=none;html=1;rounded=0;entryX=0.5;entryY=1;entryDx=0;entryDy=0;exitX=0.61;exitY=-0.05;exitDx=0;exitDy=0;exitPerimeter=0;" edge="1" parent="1" source="Y6X3k-jRTfSvu9yV3Jp_-4" target="Y6X3k-jRTfSvu9yV3Jp_-20">
          <mxGeometry width="50" height="50" relative="1" as="geometry">
            <mxPoint x="360" y="418" as="sourcePoint" />
            <mxPoint x="360" y="338" as="targetPoint" />
          </mxGeometry>
        </mxCell>
        <mxCell id="Y6X3k-jRTfSvu9yV3Jp_-32" value="" style="endArrow=none;html=1;rounded=0;entryX=0;entryY=0.5;entryDx=0;entryDy=0;exitX=0.75;exitY=0;exitDx=0;exitDy=0;" edge="1" parent="1" source="Y6X3k-jRTfSvu9yV3Jp_-4" target="Y6X3k-jRTfSvu9yV3Jp_-11">
          <mxGeometry width="50" height="50" relative="1" as="geometry">
            <mxPoint x="370" y="428" as="sourcePoint" />
            <mxPoint x="370" y="348" as="targetPoint" />
          </mxGeometry>
        </mxCell>
        <mxCell id="Y6X3k-jRTfSvu9yV3Jp_-33" value="" style="endArrow=none;html=1;rounded=0;entryX=1;entryY=0.5;entryDx=0;entryDy=0;" edge="1" parent="1" target="Y6X3k-jRTfSvu9yV3Jp_-17">
          <mxGeometry width="50" height="50" relative="1" as="geometry">
            <mxPoint x="210" y="468" as="sourcePoint" />
            <mxPoint x="380" y="358" as="targetPoint" />
          </mxGeometry>
        </mxCell>
        <mxCell id="Y6X3k-jRTfSvu9yV3Jp_-34" value="" style="endArrow=none;html=1;rounded=0;entryX=1;entryY=0.5;entryDx=0;entryDy=0;" edge="1" parent="1" target="Y6X3k-jRTfSvu9yV3Jp_-14">
          <mxGeometry width="50" height="50" relative="1" as="geometry">
            <mxPoint x="210" y="468" as="sourcePoint" />
            <mxPoint x="390" y="368" as="targetPoint" />
          </mxGeometry>
        </mxCell>
        <mxCell id="Y6X3k-jRTfSvu9yV3Jp_-35" value="" style="endArrow=none;html=1;rounded=0;entryX=0.99;entryY=0.35;entryDx=0;entryDy=0;exitX=0;exitY=0.5;exitDx=0;exitDy=0;entryPerimeter=0;" edge="1" parent="1" source="Y6X3k-jRTfSvu9yV3Jp_-2" target="Y6X3k-jRTfSvu9yV3Jp_-10">
          <mxGeometry width="50" height="50" relative="1" as="geometry">
            <mxPoint x="400" y="458" as="sourcePoint" />
            <mxPoint x="400" y="378" as="targetPoint" />
          </mxGeometry>
        </mxCell>
        <mxCell id="Y6X3k-jRTfSvu9yV3Jp_-36" value="" style="endArrow=none;html=1;rounded=0;entryX=0.5;entryY=0;entryDx=0;entryDy=0;" edge="1" parent="1" target="Y6X3k-jRTfSvu9yV3Jp_-9">
          <mxGeometry width="50" height="50" relative="1" as="geometry">
            <mxPoint x="210" y="468" as="sourcePoint" />
            <mxPoint x="410" y="388" as="targetPoint" />
          </mxGeometry>
        </mxCell>
        <mxCell id="Y6X3k-jRTfSvu9yV3Jp_-37" value="" style="endArrow=none;html=1;rounded=0;entryX=1;entryY=1;entryDx=0;entryDy=0;exitX=0.5;exitY=0;exitDx=0;exitDy=0;" edge="1" parent="1" source="Y6X3k-jRTfSvu9yV3Jp_-12" target="Y6X3k-jRTfSvu9yV3Jp_-1">
          <mxGeometry width="50" height="50" relative="1" as="geometry">
            <mxPoint x="420" y="478" as="sourcePoint" />
            <mxPoint x="420" y="398" as="targetPoint" />
          </mxGeometry>
        </mxCell>
        <mxCell id="Y6X3k-jRTfSvu9yV3Jp_-38" value="" style="endArrow=none;html=1;rounded=0;entryX=1;entryY=1;entryDx=0;entryDy=0;exitX=0.5;exitY=0;exitDx=0;exitDy=0;" edge="1" parent="1" source="Y6X3k-jRTfSvu9yV3Jp_-13" target="Y6X3k-jRTfSvu9yV3Jp_-1">
          <mxGeometry width="50" height="50" relative="1" as="geometry">
            <mxPoint x="430" y="488" as="sourcePoint" />
            <mxPoint x="430" y="408" as="targetPoint" />
          </mxGeometry>
        </mxCell>
        <mxCell id="Y6X3k-jRTfSvu9yV3Jp_-39" value="" style="endArrow=none;html=1;rounded=0;entryX=0;entryY=0.5;entryDx=0;entryDy=0;exitX=1;exitY=1;exitDx=0;exitDy=0;" edge="1" parent="1" source="Y6X3k-jRTfSvu9yV3Jp_-1" target="Y6X3k-jRTfSvu9yV3Jp_-19">
          <mxGeometry width="50" height="50" relative="1" as="geometry">
            <mxPoint x="440" y="498" as="sourcePoint" />
            <mxPoint x="440" y="418" as="targetPoint" />
          </mxGeometry>
        </mxCell>
        <mxCell id="Y6X3k-jRTfSvu9yV3Jp_-40" value="1" style="text;html=1;align=center;verticalAlign=middle;resizable=0;points=[];autosize=1;strokeColor=none;fillColor=none;" vertex="1" parent="1">
          <mxGeometry x="265" y="296" width="30" height="30" as="geometry" />
        </mxCell>
        <mxCell id="Y6X3k-jRTfSvu9yV3Jp_-41" value="N" style="text;html=1;align=center;verticalAlign=middle;resizable=0;points=[];autosize=1;strokeColor=none;fillColor=none;" vertex="1" parent="1">
          <mxGeometry x="265" y="376" width="30" height="30" as="geometry" />
        </mxCell>
        <mxCell id="Y6X3k-jRTfSvu9yV3Jp_-42" value="1" style="text;html=1;align=center;verticalAlign=middle;resizable=0;points=[];autosize=1;strokeColor=none;fillColor=none;" vertex="1" parent="1">
          <mxGeometry x="305" y="446" width="30" height="30" as="geometry" />
        </mxCell>
        <mxCell id="Y6X3k-jRTfSvu9yV3Jp_-43" value="M" style="text;html=1;align=center;verticalAlign=middle;resizable=0;points=[];autosize=1;strokeColor=none;fillColor=none;" vertex="1" parent="1">
          <mxGeometry x="335" y="446" width="30" height="30" as="geometry" />
        </mxCell>
        <mxCell id="Y6X3k-jRTfSvu9yV3Jp_-44" value="N" style="text;html=1;align=center;verticalAlign=middle;resizable=0;points=[];autosize=1;strokeColor=none;fillColor=none;" vertex="1" parent="1">
          <mxGeometry x="455" y="446" width="30" height="30" as="geometry" />
        </mxCell>
        <mxCell id="Y6X3k-jRTfSvu9yV3Jp_-45" value="1" style="text;html=1;align=center;verticalAlign=middle;resizable=0;points=[];autosize=1;strokeColor=none;fillColor=none;" vertex="1" parent="1">
          <mxGeometry x="500" y="446" width="30" height="30" as="geometry" />
        </mxCell>
        <mxCell id="Y6X3k-jRTfSvu9yV3Jp_-46" value="N" style="text;html=1;align=center;verticalAlign=middle;resizable=0;points=[];autosize=1;strokeColor=none;fillColor=none;" vertex="1" parent="1">
          <mxGeometry x="565" y="376" width="30" height="30" as="geometry" />
        </mxCell>
        <mxCell id="Y6X3k-jRTfSvu9yV3Jp_-47" value="1" style="text;html=1;align=center;verticalAlign=middle;resizable=0;points=[];autosize=1;strokeColor=none;fillColor=none;" vertex="1" parent="1">
          <mxGeometry x="565" y="296" width="30" height="30" as="geometry" />
        </mxCell>
        <mxCell id="Y6X3k-jRTfSvu9yV3Jp_-48" value="1" style="text;html=1;align=center;verticalAlign=middle;resizable=0;points=[];autosize=1;strokeColor=none;fillColor=none;" vertex="1" parent="1">
          <mxGeometry x="455" y="186" width="30" height="30" as="geometry" />
        </mxCell>
        <mxCell id="Y6X3k-jRTfSvu9yV3Jp_-49" value="N" style="text;html=1;align=center;verticalAlign=middle;resizable=0;points=[];autosize=1;strokeColor=none;fillColor=none;" vertex="1" parent="1">
          <mxGeometry x="335" y="186" width="30" height="30" as="geometry" />
        </mxCell>
        <mxCell id="Y6X3k-jRTfSvu9yV3Jp_-52" value="&lt;font color=&quot;#b3b3b3&quot;&gt;학사관리 시스템 ERD 조범수&lt;/font&gt;" style="text;html=1;align=center;verticalAlign=middle;resizable=0;points=[];autosize=1;strokeColor=none;fillColor=#000000;" vertex="1" parent="1">
          <mxGeometry x="30" y="80" width="180" height="30" as="geometry" />
        </mxCell>
      </root>
    </mxGraphModel>
  </diagram>
</mxfile>
